<?xml version="1.0" encoding="UTF-8" standalone="no"?>
<svg
   version="1.1"
   width="120px"
   height="120px"
   style="shape-rendering:geometricPrecision; text-rendering:geometricPrecision; image-rendering:optimizeQuality; fill-rule:evenodd; clip-rule:evenodd"
   id="svg18"
   sodipodi:docname="favicon.svg"
   inkscape:version="1.3.2 (091e20e, 2023-11-25, custom)"
   xmlns:inkscape="http://www.inkscape.org/namespaces/inkscape"
   xmlns:sodipodi="http://sodipodi.sourceforge.net/DTD/sodipodi-0.dtd"
   xmlns="http://www.w3.org/2000/svg"
   xmlns:svg="http://www.w3.org/2000/svg">
  <defs
     id="defs18" />
  <sodipodi:namedview
     id="namedview18"
     pagecolor="#ffffff"
     bordercolor="#000000"
     borderopacity="0.25"
     inkscape:showpageshadow="2"
     inkscape:pageopacity="0.0"
     inkscape:pagecheckerboard="0"
     inkscape:deskcolor="#d1d1d1"
     inkscape:zoom="8"
     inkscape:cx="46.4375"
     inkscape:cy="63.4375"
     inkscape:window-width="1920"
     inkscape:window-height="974"
     inkscape:window-x="-11"
     inkscape:window-y="-11"
     inkscape:window-maximized="1"
     inkscape:current-layer="svg18" />
  <g
     id="g1"
     style="fill:#3b82f6;fill-opacity:0.99215686">
    <path
       style="opacity:0.989;fill:#3b82f6;fill-opacity:0.99215686"
       fill="#090909"
       d="m 23,0 c 24.6667,0 49.3333,0 74,0 11.333,4 19,11.6667 23,23 0,24.6667 0,49.3333 0,74 -4,11.333 -11.667,19 -23,23 -24.6667,0 -49.3333,0 -74,0 C 11.6667,116 4,108.333 0,97 0,72.3333 0,47.6667 0,23 4,11.6667 11.6667,4 23,0 Z"
       id="path1" />
  </g>
  <g
     id="g2">
    <path
       style="opacity:1"
       fill="#ececec"
       d="m 71.5,34.5 c 7.5968,1.9668 15.5968,2.6335 24,2 0.6174,0.1107 1.1174,0.444 1.5,1 0.8316,8.0208 0.6649,16.0208 -0.5,24 -0.586,0.2093 -1.086,0.5426 -1.5,1 -0.1798,9.9105 -0.6798,19.7438 -1.5,29.5 -22.6667,0.6667 -45.3333,0.6667 -68,0 -0.556,-0.3826 -0.8893,-0.8826 -1,-1.5 0.64,-10.0578 -0.0267,-19.7245 -2,-29 -1.1561,-7.8225 -1.3228,-15.8225 -0.5,-24 0.3826,-0.556 0.8826,-0.8893 1.5,-1 8.4032,0.6335 16.4032,-0.0332 24,-2 4.1894,-7.7874 13.5227,-9.204 19,-6.5 3.4149,2.1522 3.9566,3.9438 5,6.5 z"
       id="path2"
       sodipodi:nodetypes="cccccccccccccc" />
  </g>
  <g
     id="g9"
     style="fill:#808080">
    <path
       style="opacity:1;fill:#808080"
       fill="#313131"
       d="M 27.5,42.5 C 48.8333,42.5 70.1667,42.5 91.5,42.5C 91.8214,48.0262 91.4881,53.3595 90.5,58.5C 90.5,53.5 90.5,48.5 90.5,43.5C 69.8333,43.5 49.1667,43.5 28.5,43.5C 28.5,48.1667 28.5,52.8333 28.5,57.5C 27.5128,52.6946 27.1795,47.6946 27.5,42.5 Z"
       id="path9" />
  </g>
  <g
     id="g10"
     style="fill:#cccccc">
    <path
       style="opacity:1;fill:#4d4d4d"
       fill="#0a0a0a"
       d="M 90.5,58.5 C 86.7143,59.8926 83.0477,61.5593 79.5,63.5C 74.3039,64.1392 69.3039,65.1392 64.5,66.5C 62.9147,65.5263 61.9147,64.0263 61.5,62C 59.9343,61.235 58.6009,61.4017 57.5,62.5C 56.8386,63.7175 56.1719,65.0508 55.5,66.5C 51.8949,65.5102 48.2283,64.8436 44.5,64.5C 38.9066,63.1053 33.5732,61.1053 28.5,58.5C 28.5,58.1667 28.5,57.8333 28.5,57.5C 28.5,52.8333 28.5,48.1667 28.5,43.5C 49.1667,43.5 69.8333,43.5 90.5,43.5C 90.5,48.5 90.5,53.5 90.5,58.5 Z"
       id="path10" />
  </g>
  <g
     id="g16"
     style="fill:#cccccc">
    <path
       style="opacity:1;fill:#4d4d4d"
       fill="#0b0b0b"
       d="M 31.5,66.5 C 33.3024,67.4582 35.3024,68.1249 37.5,68.5C 39.1016,70.0739 41.1016,70.7406 43.5,70.5C 47.7391,71.5346 52.0725,72.2012 56.5,72.5C 56.0146,77.1585 57.848,78.4919 62,76.5C 62.49,75.2068 62.6567,73.8734 62.5,72.5C 66.8171,72.9166 70.8171,72.2499 74.5,70.5C 78.8083,70.0083 82.8083,68.6749 86.5,66.5C 88.4589,72.7496 89.1255,79.4163 88.5,86.5C 69.1667,86.5 49.8333,86.5 30.5,86.5C 30.176,79.6457 30.5093,72.979 31.5,66.5 Z"
       id="path16" />
  </g>
  <path
     style="fill:#3b82f6;fill-opacity:0.99215698;stroke-width:0;stroke:none;stroke-opacity:1;stroke-dasharray:none"
     d="m 62.757812,35.459739 c -0.872265,-0.0064 -2.675781,-0.01916 -4.007812,-0.02842 -1.332031,-0.0093 -3.013842,-0.02147 -3.737358,-0.02713 l -1.315482,-0.0103 0.04562,-0.09037 c 0.174203,-0.345094 0.561498,-0.907061 0.887584,-1.28789 1.051641,-1.228189 2.336434,-2.012947 3.760262,-2.296789 1.710893,-0.341068 3.534596,0.01773 5.086103,1.000657 0.988097,0.625988 1.914981,1.533581 2.580953,2.527236 0.06791,0.101326 0.127412,0.19449 0.132225,0.207031 0.01,0.026 -0.556163,0.02699 -3.432094,0.006 z"
     id="path27" />
</svg>
